<svg viewBox="0 0 36 36" xmlns="http://www.w3.org/2000/svg" fill="currentColor"><path fill-rule="evenodd" clip-rule="evenodd" d="M4.61417 8.4255C4.72779 8.15147 4.92011 7.91728 5.16681 7.75255C5.41351 7.58781 5.70353 7.49993 6.00017 7.5H21.0002C22.3791 7.5 23.7444 7.77159 25.0183 8.29926C26.2923 8.82694 27.4498 9.60036 28.4248 10.5754C29.3998 11.5504 30.1732 12.7079 30.7009 13.9818C31.2286 15.2557 31.5002 16.6211 31.5002 18C31.5002 19.3789 31.2286 20.7443 30.7009 22.0182C30.1732 23.2921 29.3998 24.4496 28.4248 25.4246C27.4498 26.3996 26.2923 27.1731 25.0183 27.7007C23.7444 28.2284 22.3791 28.5 21.0002 28.5H7.50017C7.10235 28.5 6.72082 28.342 6.43951 28.0607C6.15821 27.7794 6.00017 27.3978 6.00017 27C6.00017 26.6022 6.15821 26.2206 6.43951 25.9393C6.72082 25.658 7.10235 25.5 7.50017 25.5H21.0002C22.9893 25.5 24.897 24.7098 26.3035 23.3033C27.71 21.8968 28.5002 19.9891 28.5002 18C28.5002 16.0109 27.71 14.1032 26.3035 12.6967C24.897 11.2902 22.9893 10.5 21.0002 10.5H9.62117L12.3107 13.1895C12.5839 13.4724 12.7351 13.8513 12.7317 14.2446C12.7283 14.6379 12.5705 15.0141 12.2924 15.2922C12.0143 15.5703 11.6381 15.7281 11.2448 15.7315C10.8515 15.7349 10.4726 15.5837 10.1897 15.3105L4.93967 10.0605C4.72977 9.85073 4.58681 9.58342 4.52887 9.29238C4.47093 9.00135 4.50062 8.69966 4.61417 8.4255Z"/></svg>