<svg viewBox="0 0 36 36" xmlns="http://www.w3.org/2000/svg" fill="currentColor"><path d="M21.8597 1.85403C21.716 1.77157 21.5575 1.71826 21.3931 1.69716C21.2288 1.67605 21.0619 1.68756 20.902 1.73103C20.7421 1.7745 20.5924 1.84908 20.4614 1.95049C20.3304 2.0519 20.2206 2.17816 20.1385 2.32203L20.1373 2.32428L15.6688 10.0643L15.1288 9.82916C13.7959 9.24335 12.2973 9.15385 10.9041 9.57685C9.51094 9.99984 8.31509 10.9074 7.53284 12.1354L7.52497 12.1478L7.51709 12.1613L7.51484 12.1602L1.66484 21.9252L1.65922 21.933V21.942H1.65697C1.13683 22.8464 0.996211 23.9201 1.26588 24.9279C1.53556 25.9358 2.19356 26.7957 3.09584 27.3195C3.79131 27.7299 4.59771 27.9124 5.40209 27.8415L5.33684 27.9563L5.33572 27.9574C5.10418 28.3577 4.96361 28.804 4.92397 29.2647L4.49647 33.138V33.147C4.42559 34.0617 5.45047 34.6388 6.19634 34.1258L6.20759 34.119L9.30359 31.7768C9.62534 31.5495 9.90547 31.2593 10.1192 30.9285V30.9398C10.1193 31.7697 10.3816 32.5784 10.8687 33.2503C11.3558 33.9223 12.0428 34.4232 12.8315 34.6814C13.6202 34.9397 14.4704 34.9421 15.2605 34.6884C16.0507 34.4346 16.7405 33.9377 17.2315 33.2685C17.374 33.4035 17.5258 33.531 17.6871 33.651C18.8571 34.515 20.386 34.8773 21.943 34.8773H32.338C32.9576 34.8773 33.5555 34.649 34.0175 34.236C34.4795 33.823 34.7731 33.2543 34.8422 32.6385H34.8692V30.4425H34.8715V20.475C34.8704 19.8561 34.6884 19.2511 34.3478 18.7344C34.0071 18.2176 33.5228 17.8118 32.9545 17.5669L20.8607 12.3177L25.0063 5.13228L25.0086 5.12891C25.0911 4.9852 25.1444 4.82664 25.1655 4.66231C25.1866 4.49798 25.1751 4.33109 25.1316 4.17122C25.0881 4.01134 25.0135 3.8616 24.9121 3.73058C24.8107 3.59956 24.6845 3.48982 24.5406 3.40766L24.5372 3.40653L21.8653 1.85628L21.8597 1.85403ZM14.5382 12.0218L11.5502 17.1968C10.9595 17.4815 10.4702 17.9405 10.1485 18.5119L6.53947 24.7568C6.38976 25.0147 6.17519 25.229 5.91706 25.3784C5.65893 25.5278 5.36621 25.6071 5.06797 25.6084C4.77455 25.6098 4.48617 25.5321 4.23322 25.3834L4.22872 25.3812C4.03408 25.2713 3.8632 25.1239 3.726 24.9474C3.58881 24.771 3.48803 24.569 3.42953 24.3533C3.37102 24.1376 3.35595 23.9124 3.38519 23.6908C3.41442 23.4693 3.48739 23.2557 3.59984 23.0625L9.42734 13.3358C9.92173 12.5617 10.6767 11.99 11.5559 11.724C12.4351 11.458 13.3804 11.5154 14.221 11.8857H14.2255L14.5382 12.0218ZM16.9828 19.0395L19.7312 14.2763L32.0623 19.6313L32.059 19.6268C32.2263 19.6961 32.3692 19.8137 32.4694 19.9646C32.5696 20.1155 32.6225 20.2928 32.6215 20.4739V21.3672H32.6192V30.3897H26.083C25.7965 30.3889 25.516 30.3679 25.2415 30.3267L24.5181 30.168C23.4244 29.8522 22.4664 29.1823 21.7945 28.2634C20.8945 27.0327 19.2407 26.7222 17.9537 27.4365L17.9526 27.4377C17.1763 27.8708 16.2583 28.3827 15.5361 28.7877L14.284 29.4852L14.2716 29.493C13.7539 29.7908 13.1392 29.871 12.5625 29.7162C11.9857 29.5614 11.4938 29.1842 11.1947 28.6673C10.8975 28.1492 10.8177 27.5345 10.9729 26.9578C11.1281 26.381 11.5056 25.8893 12.0227 25.5904L16.7758 22.8454C16.9797 22.7734 17.1584 22.6441 17.2907 22.4731C17.423 22.3021 17.5032 22.0967 17.5217 21.8813C17.6361 20.9012 17.4481 19.9097 16.9828 19.0395ZM6.21997 28.692L9.12809 30.3863C8.99587 30.5711 8.83347 30.7324 8.64772 30.8633L8.63984 30.8689L6.93547 32.1582L5.80934 31.5023L6.04334 29.3828V29.3704C6.06584 29.1297 6.12547 28.9002 6.21997 28.692ZM21.8158 8.41166L18.8908 6.73316L19.9888 4.82966L22.9082 6.51716L21.8158 8.41166Z"/></svg>