<svg viewBox="0 0 36 36" xmlns="http://www.w3.org/2000/svg" fill="currentColor"><path d="M0 2.45551V31.0905C0 32.4405 1.104 33.5445 2.454 33.5445H2.6505C2.52096 32.7329 2.45576 31.9124 2.4555 31.0905C2.44908 28.0874 3.31801 25.1476 4.956 22.6305L11.259 33.5445H12.951C12.5377 32.686 12.3481 31.737 12.3997 30.7856C12.4513 29.8342 12.7425 28.9112 13.2462 28.1024C13.7498 27.2936 14.4497 26.6252 15.2808 26.1592C16.1119 25.6933 17.0472 25.4448 18 25.437C18.953 25.4447 19.8885 25.6931 20.7198 26.1592C21.5511 26.6252 22.2511 27.2938 22.7548 28.1028C23.2585 28.9118 23.5496 29.835 23.6011 30.7866C23.6525 31.7382 23.4626 32.6874 23.049 33.546H24.621C25.1537 32.1186 25.2096 30.5571 24.7805 29.0953C24.3514 27.6334 23.4602 26.3499 22.2405 25.437H32.4855C33.4922 28.0144 33.791 30.8142 33.351 33.546H33.546C34.896 33.546 36 32.4405 36 31.0905V2.45551H0ZM13.9095 5.72701H22.0905C22.5245 5.72701 22.9408 5.89942 23.2477 6.20633C23.5546 6.51323 23.727 6.92948 23.727 7.36351C23.727 7.79753 23.5546 8.21378 23.2477 8.52069C22.9408 8.82759 22.5245 9.00001 22.0905 9.00001H13.9095C13.4755 9.00001 13.0592 8.82759 12.7523 8.52069C12.4454 8.21378 12.273 7.79753 12.273 7.36351C12.273 6.92948 12.4454 6.51323 12.7523 6.20633C13.0592 5.89942 13.4755 5.72701 13.9095 5.72701ZM18 15.546C20.8657 15.5447 23.676 16.3359 26.1202 17.8321C28.5644 19.3283 30.5472 21.4713 31.8495 24.024H18C16.2718 24.0238 14.6035 24.657 13.3107 25.8039C12.0179 26.9507 11.1903 28.5316 10.9845 30.2475L5.865 21.375C7.31977 19.5541 9.16621 18.0844 11.2671 17.0753C13.368 16.0661 15.6693 15.5434 18 15.546Z"/></svg>