<svg viewBox="0 0 36 36" xmlns="http://www.w3.org/2000/svg" fill="currentColor"><path fill-rule="evenodd" clip-rule="evenodd" d="M21.375 3.75C21.375 3.65054 21.3355 3.55516 21.2652 3.48484C21.1948 3.41451 21.0995 3.375 21 3.375H10.5C9.40598 3.375 8.35677 3.8096 7.58318 4.58318C6.8096 5.35677 6.375 6.40598 6.375 7.5V28.5C6.375 29.594 6.8096 30.6432 7.58318 31.4168C8.35677 32.1904 9.40598 32.625 10.5 32.625H25.5C26.594 32.625 27.6432 32.1904 28.4168 31.4168C29.1904 30.6432 29.625 29.594 29.625 28.5V13.7205C29.625 13.621 29.5855 13.5257 29.5152 13.4553C29.4448 13.385 29.3495 13.3455 29.25 13.3455H22.5C22.2016 13.3455 21.9155 13.227 21.7045 13.016C21.4935 12.805 21.375 12.5189 21.375 12.2205V3.75ZM22.5 18.375C22.7984 18.375 23.0845 18.4935 23.2955 18.7045C23.5065 18.9155 23.625 19.2016 23.625 19.5C23.625 19.7984 23.5065 20.0845 23.2955 20.2955C23.0845 20.5065 22.7984 20.625 22.5 20.625H13.5C13.2016 20.625 12.9155 20.5065 12.7045 20.2955C12.4935 20.0845 12.375 19.7984 12.375 19.5C12.375 19.2016 12.4935 18.9155 12.7045 18.7045C12.9155 18.4935 13.2016 18.375 13.5 18.375H22.5ZM22.5 24.375C22.7984 24.375 23.0845 24.4935 23.2955 24.7045C23.5065 24.9155 23.625 25.2016 23.625 25.5C23.625 25.7984 23.5065 26.0845 23.2955 26.2955C23.0845 26.5065 22.7984 26.625 22.5 26.625H13.5C13.2016 26.625 12.9155 26.5065 12.7045 26.2955C12.4935 26.0845 12.375 25.7984 12.375 25.5C12.375 25.2016 12.4935 24.9155 12.7045 24.7045C12.9155 24.4935 13.2016 24.375 13.5 24.375H22.5Z"/><path d="M23.625 4.23618C23.625 3.96018 23.9145 3.78468 24.129 3.95718C24.311 4.10418 24.4725 4.27518 24.6135 4.47018L29.133 10.7657C29.235 10.9097 29.124 11.0957 28.947 11.0957H24C23.9005 11.0957 23.8052 11.0562 23.7348 10.9858C23.6645 10.9155 23.625 10.8201 23.625 10.7207V4.23618Z"/></svg>