<svg viewBox="0 0 36 36" xmlns="http://www.w3.org/2000/svg" fill="currentColor"><path d="M10.275 10.11C10.29 10.11 10.29 10.11 10.275 10.11ZM31.92 12.9C31.275 11.325 29.94 9.63 28.905 9.09C29.745 10.755 30.24 12.42 30.435 13.65V13.68C28.74 9.45 25.86 7.74001 23.505 4.02001C23.385 3.84001 23.25 3.645 23.145 3.45C23.085 3.345 23.04 3.24 22.98 3.135C22.89 2.94 22.8 2.74501 22.755 2.53501C22.755 2.52001 22.74 2.505 22.725 2.505H22.68C19.35 4.455 17.955 7.89 17.61 10.065C16.575 10.125 15.555 10.38 14.625 10.83C14.445 10.905 14.37 11.115 14.43 11.295C14.505 11.505 14.745 11.61 14.94 11.52C15.75 11.13 16.65 10.905 17.55 10.845H17.625C17.745 10.83 17.88 10.83 18 10.83C18.75 10.815 19.455 10.92 20.16 11.13L20.25 11.16C20.4 11.19 20.505 11.25 20.625 11.25C20.7 11.31 20.79 11.34 20.865 11.37L21.075 11.46C21.18 11.505 21.285 11.55 21.375 11.595C21.42 11.625 21.465 11.64 21.51 11.67C21.615 11.73 21.75 11.775 21.81 11.835C21.87 11.865 21.93 11.91 21.99 11.94C23.085 12.615 24 13.545 24.615 14.655C23.82 14.1 22.38 13.545 21 13.785C26.4 16.5 24.945 25.785 17.46 25.425C16.8 25.41 16.14 25.275 15.51 25.05C15.36 25.005 15.21 24.945 15.075 24.87C15 24.84 14.895 24.795 14.82 24.75C12.975 23.805 11.46 22.02 11.25 19.845C11.25 19.845 12 17.25 16.245 17.25C16.71 17.25 18 15.96 18.045 15.6C18.045 15.465 15.435 14.43 14.415 13.425C13.86 12.885 13.605 12.63 13.38 12.435C13.26 12.33 13.125 12.24 12.99 12.15C12.6453 10.9513 12.6297 9.68182 12.945 8.475C11.4 9.18 10.2 10.29 9.33 11.25C8.73 10.5 8.775 8.025 8.805 7.5C8.79 7.5 8.355 7.74 8.31 7.77C7.785 8.145 7.29 8.565 6.84 9C6.315 9.555 5.85 10.11 5.43 10.71C4.5 12.075 3.75 13.635 3.42 15.27C3.42 15.285 3.27 15.885 3.165 16.65L3.12 16.995C3.09 17.25 3.06 17.475 3 17.865V18.48C3 26.775 9.75 33.495 18 33.495C25.455 33.495 31.62 28.11 32.82 21C32.85 20.835 32.865 20.64 32.895 20.445C33.195 17.865 32.865 15.165 31.92 12.9Z"/></svg>