<?xml version="1.0" encoding="UTF-8" standalone="no"?>
<!-- Created with Inkscape (http://www.inkscape.org/) -->

<svg
   width="1000"
   height="1000"
   viewBox="0 0 264.58333 264.58333"
   version="1.1"
   id="svg1"
   inkscape:version="1.4.2 (ebf0e940d0, 2025-05-08)"
   sodipodi:docname="logo2.svg"
   inkscape:export-filename="logo2-32.png"
   inkscape:export-xdpi="3.072"
   inkscape:export-ydpi="3.072"
   xmlns:inkscape="http://www.inkscape.org/namespaces/inkscape"
   xmlns:sodipodi="http://sodipodi.sourceforge.net/DTD/sodipodi-0.dtd"
   xmlns="http://www.w3.org/2000/svg"
   xmlns:svg="http://www.w3.org/2000/svg">
  <sodipodi:namedview
     id="namedview1"
     pagecolor="#ffffff"
     bordercolor="#000000"
     borderopacity="0.25"
     inkscape:showpageshadow="2"
     inkscape:pageopacity="0.0"
     inkscape:pagecheckerboard="0"
     inkscape:deskcolor="#d1d1d1"
     inkscape:document-units="mm"
     showborder="false"
     inkscape:zoom="0.23830317"
     inkscape:cx="696.59166"
     inkscape:cy="694.49349"
     inkscape:window-width="1366"
     inkscape:window-height="744"
     inkscape:window-x="0"
     inkscape:window-y="0"
     inkscape:window-maximized="1"
     inkscape:current-layer="layer1" />
  <defs
     id="defs1" />
  <g
     inkscape:label="Layer 1"
     inkscape:groupmode="layer"
     id="layer1">
    <path
       id="text2"
       style="font-weight:100;font-size:220.513px;font-family:BlackChancery;-inkscape-font-specification:'BlackChancery Thin';stroke-width:46.2868;paint-order:stroke fill markers"
       sodipodi:type="inkscape:offset"
       inkscape:radius="4.4627457"
       inkscape:original="M 157.38867 26.765625 C 157.13773 26.772125 156.88766 26.778646 156.63672 26.785156 C 124.88765 26.767806 93.136136 26.772365 61.386719 26.796875 C 50.276482 27.048501 39.400166 30.776216 30.078125 36.746094 C 24.241818 40.363306 18.812356 44.852956 14.962891 50.597656 C 10.069931 57.773654 7.5405816 66.342766 6.7734375 74.939453 C 5.997591 83.305519 6.4030664 91.973533 9.4375 99.888672 C 12.151035 107.0189 16.87645 113.54521 23.380859 117.6543 C 29.784363 121.77761 37.406439 123.53361 44.925781 124.05273 C 51.734564 124.48065 58.782558 124.15872 65.15625 121.50195 C 69.927894 119.54651 74.351878 116.33142 76.947266 111.79297 C 80.13408 106.41735 81.094506 100.05244 81.205078 93.892578 C 81.221748 92.963189 81.199878 91.986816 80.833984 91.126953 C 80.54637 90.641857 79.8401 90.906853 79.724609 91.40625 C 78.761555 92.988929 78.56524 94.823576 77.857422 96.5 C 76.055501 101.55028 73.702962 106.50594 69.833984 110.30078 C 67.282255 112.76741 64.080055 114.43991 60.828125 115.78906 C 57.120242 117.25535 53.161291 117.97145 49.15625 117.5918 C 42.875919 117.04328 37.218563 113.632 32.693359 109.40625 C 27.863095 104.9544 24.026862 99.376722 21.919922 93.134766 C 19.425566 85.987172 19.22807 78.36448 19.984375 70.878906 C 20.829355 62.664719 23.451057 54.403997 28.777344 47.96875 C 32.329342 43.547624 37.234861 40.487574 42.515625 38.501953 C 50.472629 35.548159 59.022238 34.637972 67.457031 34.425781 C 71.845478 34.329891 76.311174 34.450642 80.533203 35.777344 C 84.528349 36.963383 88.218512 39.242347 90.966797 42.384766 C 93.486644 45.305164 94.825764 49.118459 94.957031 52.953125 C 95.086036 56.352711 94.955173 59.754823 95.007812 63.15625 C 94.998212 93.454528 95.036259 123.75486 94.980469 154.05273 C 94.824065 158.94741 93.731961 164.31984 90.148438 167.9668 C 87.443246 170.74796 83.578572 172.15915 79.748047 172.33008 C 70.489803 173.29377 61.221599 174.20397 51.970703 175.21289 C 43.382324 177.26494 35.505412 182.10622 29.777344 188.82422 C 26.284866 192.84912 23.42172 197.41867 21.236328 202.27148 C 21.147108 202.85516 20.469606 203.73739 21.220703 204.12305 C 21.771312 204.31376 22.23105 203.65279 22.6875 203.39844 C 24.414295 201.96593 25.873797 200.25035 27.537109 198.74609 C 30.27994 196.13391 32.950822 193.4297 35.855469 190.99805 C 42.629842 185.88105 50.979532 182.77254 59.466797 182.58789 C 63.931885 182.49369 68.39914 182.59033 72.865234 182.55273 C 82.182084 182.56953 91.501097 182.50895 100.81641 182.59375 C 106.11104 183.02532 110.89903 185.6447 115.32422 188.46094 C 122.07714 192.81363 127.9003 198.35364 133.82227 203.73242 C 144.21687 212.99111 155.19432 221.71347 167.29492 228.65234 C 176.65035 233.66901 187.21624 235.88201 197.69141 236.98438 C 206.70935 237.88154 215.80799 238.07606 224.84961 237.42969 C 231.64442 236.88386 238.56189 235.80233 244.71875 232.72852 C 250.93732 229.45479 255.38928 223.30254 257.06641 216.5293 C 258.67571 210.2017 258.40379 203.48599 256.87305 197.17188 C 256.08499 194.30204 255.38454 191.20424 253.24219 188.99805 C 251.59079 187.1527 249.13331 186.21775 246.6875 186.18164 C 243.90968 186.10694 241.09437 186.39958 238.42578 187.19531 C 236.02264 187.89029 233.8895 189.33923 232.28516 191.25 C 230.66159 193.09932 229.43441 195.2504 228.34375 197.44531 C 232.024 200.17494 235.81228 202.77139 239.36328 205.66797 C 241.14694 207.33705 242.33844 209.40956 242.91211 211.79102 C 243.71499 215.71519 243.00581 220.18391 240.18945 223.17969 C 237.82928 225.68898 234.59608 227.14326 231.4082 228.29688 C 226.05488 230.09223 220.39796 230.34895 214.81055 230.11523 C 205.00774 229.75264 195.19609 227.7699 186.0293 224.0332 C 184.26786 223.3247 182.53762 222.53852 180.83008 221.70898 C 183.72509 219.8488 185.82859 217.05889 188.12305 214.55078 C 190.3529 212.00429 192.48218 209.37334 194.62695 206.75586 C 188.00095 202.8321 181.46507 198.25526 177.10938 191.77344 C 174.03253 187.16492 172.42845 181.59918 172.45312 176.0957 C 172.39232 168.17487 174.57218 160.30459 178.45898 153.41992 C 180.71601 149.41494 183.41353 145.63172 186.5918 142.30469 C 197.65971 131.60447 208.73587 120.91509 219.73047 110.13867 C 230.79352 98.903236 239.6642 85.556064 245.93164 71.099609 C 246.29638 70.638966 246.40191 69.696002 245.63086 69.626953 C 244.65928 69.890568 243.83579 70.558731 242.89062 70.921875 C 237.63505 73.399475 231.9725 75.158037 226.125 75.630859 C 221.35966 76.057494 216.57148 75.798265 211.79492 75.867188 C 196.07431 75.879158 180.35285 75.832814 164.63281 75.902344 C 156.8972 76.123513 149.18092 78.798345 143.2207 83.787109 C 136.18223 89.546653 131.49487 97.734821 128.77734 106.32422 C 128.37335 107.551 127.96906 108.77732 127.56445 110.00391 C 132.3368 106.424 136.96342 102.52127 142.38086 99.935547 C 145.56028 98.580191 148.99678 98.351256 152.4668 98.111328 C 159.81503 97.911546 167.16769 98.063895 174.51758 98.015625 L 213.86719 98.015625 C 199.79794 111.90969 185.68742 125.76314 171.6582 139.69727 C 164.24041 147.33413 157.55044 155.96548 153.65234 165.95898 C 150.93214 172.93864 149.95872 180.63671 151.21289 188.04297 C 152.31954 194.90354 155.16069 201.39992 158.93945 207.20117 C 149.53808 199.5128 141.23613 190.44684 134.66406 180.2207 C 131.10879 174.78932 127.687 169.16426 125.66797 162.98828 C 124.90105 160.64363 124.61172 158.16671 124.73633 155.70703 C 124.74233 121.00845 124.72247 86.309616 124.75977 51.611328 C 124.84177 47.139035 126.11446 42.137603 129.4375 38.986328 C 131.82341 36.794647 134.93365 35.696293 137.89453 34.560547 C 144.81422 32.059747 151.96304 30.437559 159.12695 28.845703 C 159.65367 28.436932 160.81756 28.325107 160.55273 27.408203 C 159.6702 26.753268 158.45455 26.764258 157.38867 26.765625 z "
       d="m 157.38281,22.302734 c -0.0365,6.51e-4 -0.5612,0.01367 -0.78711,0.01953 -31.7368,-0.01732 -63.475923,-0.01278 -95.212888,0.01172 a 4.4631919,4.4631919 0 0 0 -0.09766,0.002 C 49.248714,22.60854 37.621744,26.62033 27.685547,32.980469 c -6.16896,3.828616 -12.099259,8.67709 -16.419922,15.11914 -5.4112179,7.942943 -8.1134146,17.238551 -8.9355469,26.427735 -1.188e-4,0.0013 1.188e-4,0.0026 0,0.0039 -0.8144478,8.786229 -0.4371491,18.141562 2.9355469,26.94531 7.235e-4,0.002 0.00123,0.004 0.00195,0.006 5.199e-4,0.001 0.00143,0.003 0.00195,0.004 3.0025109,7.88425 8.2417278,15.20388 15.7128908,19.92969 7.269903,4.67564 15.640541,6.53585 23.636719,7.08789 a 4.4631919,4.4631919 0 0 0 0.02734,0.002 c 7.135947,0.44848 14.881638,0.17199 22.210938,-2.87891 5.454494,-2.23711 10.720698,-5.96875 13.949219,-11.60156 3.753988,-6.35614 4.743679,-13.49864 4.861328,-20.052734 0.01893,-1.0554 0.08887,-2.672865 -0.728516,-4.59375 a 4.4631919,4.4631919 0 0 0 -0.267578,-0.527344 c -1.142889,-1.927622 -4.019158,-2.743873 -5.738281,-2.228515 -1.719123,0.515358 -3.087985,1.750817 -3.556641,3.777344 l 0.535156,-1.314454 c -1.619175,2.660947 -1.797008,4.803764 -2.166015,5.677735 A 4.4631919,4.4631919 0 0 0 73.654297,95 c -1.696452,4.75468 -3.812249,9.03067 -6.931641,12.09766 -1.925989,1.85876 -4.584485,3.3098 -7.568359,4.55078 -3.149346,1.24043 -6.382216,1.80276 -9.576172,1.5 a 4.4631919,4.4631919 0 0 0 -0.0332,-0.002 c -4.914051,-0.42919 -9.761878,-3.22485 -13.806641,-7.00195 a 4.4631919,4.4631919 0 0 0 -0.01953,-0.0195 c -4.330198,-3.99096 -7.730703,-8.967997 -9.570313,-14.417969 a 4.4631919,4.4631919 0 0 0 -0.01563,-0.04297 C 23.940359,85.381571 23.70677,78.43996 24.423828,71.335937 25.203822,63.753488 27.626011,56.358704 32.214844,50.814453 a 4.4631919,4.4631919 0 0 0 0.04102,-0.05078 c 2.924692,-3.640325 7.109994,-6.307577 11.828125,-8.082031 8.39e-4,-3.16e-4 0.0011,-0.0016 0.002,-0.002 7.253972,-2.689501 15.296528,-3.586914 23.478516,-3.792968 4.236713,-0.09218 8.196282,0.06918 11.630859,1.148437 a 4.4631919,4.4631919 0 0 0 0.06836,0.01953 c 3.212837,0.953795 6.182022,2.805382 8.330078,5.25586 1.77101,2.057052 2.803255,4.900282 2.902344,7.794922 a 4.4631919,4.4631919 0 0 0 0.002,0.01758 c 0.12039,3.172568 -0.0082,6.539678 0.04687,10.101562 -0.0095,30.238484 0.02806,60.473021 -0.02734,90.697261 -0.140152,4.33167 -1.189422,8.51282 -3.552734,10.91797 a 4.4631919,4.4631919 0 0 0 -0.01563,0.0156 c -1.750073,1.79922 -4.529124,2.8875 -7.400391,3.01562 a 4.4631919,4.4631919 0 0 0 -0.263672,0.0195 c -9.241002,0.9619 -18.516144,1.87434 -27.798828,2.88672 a 4.4631919,4.4631919 0 0 0 -0.552734,0.0957 c -9.527996,2.27655 -18.193744,7.60368 -24.544922,15.04882 -3.788198,4.37036 -6.870744,9.29934 -9.220703,14.51758 a 4.4631919,4.4631919 0 0 0 -0.34375,1.15821 c 0.159594,-1.04407 0.04887,-0.54871 -0.236328,0.57617 -0.142601,0.56244 -0.352422,1.48497 0.0078,2.77734 0.360234,1.29238 1.540614,2.60585 2.585938,3.14258 a 4.4631919,4.4631919 0 0 0 0.578125,0.24609 c 2.144922,0.74292 4.171404,-0.31112 4.835937,-0.78906 0.664533,-0.47794 0.914781,-0.61673 0.263672,-0.25391 a 4.4631919,4.4631919 0 0 0 0.677734,-0.46289 c 2.123313,-1.76145 3.619554,-3.5342 4.994141,-4.77734 a 4.4631919,4.4631919 0 0 0 0.08398,-0.0781 c 2.778491,-2.64615 5.360016,-5.2422 8.017578,-7.47657 6.044926,-4.5396 13.501244,-7.29065 20.927735,-7.45312 4.323376,-0.0912 8.757415,0.004 13.296875,-0.0332 9.261177,0.0167 18.487947,-0.0402 27.677738,0.041 4.02433,0.35201 8.15972,2.47807 12.3789,5.16211 6.28228,4.05079 11.93765,9.3935 17.90821,14.81641 a 4.4631919,4.4631919 0 0 0 0.0312,0.0293 c 10.52039,9.37074 21.73045,18.29668 34.2207,25.45899 a 4.4631919,4.4631919 0 0 0 0.11133,0.0625 c 10.107,5.41968 21.25628,7.70119 32.03906,8.83593 a 4.4631919,4.4631919 0 0 0 0.0254,0.004 c 9.24896,0.92014 18.60043,1.12117 27.91797,0.45508 a 4.4631919,4.4631919 0 0 0 0.0391,-0.002 c 7.02285,-0.56415 14.52809,-1.67456 21.50586,-5.15821 a 4.4631919,4.4631919 0 0 0 0.084,-0.043 c 7.47596,-3.93567 12.62427,-11.11719 14.59571,-19.06054 1.82151,-7.17141 1.4904,-14.59915 -0.18164,-21.4961 a 4.4631919,4.4631919 0 0 0 -0.0352,-0.13086 c -0.7448,-2.71231 -1.47573,-6.6914 -4.67969,-10.0332 -2.60741,-2.86753 -6.2147,-4.17621 -9.71484,-4.23437 -3.15574,-0.0827 -6.41686,0.24207 -9.60547,1.18945 -3.29907,0.95642 -6.14171,2.90866 -8.2793,5.44336 -1.99778,2.28788 -3.38954,4.77051 -4.54882,7.10351 a 4.4631919,4.4631919 0 0 0 1.33789,5.57032 c 3.71176,2.753 7.37327,5.2804 10.6914,7.97265 1.09378,1.0471 1.78277,2.2391 2.16211,3.74414 0.54482,2.75004 -0.0575,5.73453 -1.60156,7.37696 -1.54547,1.64251 -4.05216,2.88455 -6.99219,3.95312 -4.5657,1.52269 -9.63975,1.80217 -14.94922,1.58008 a 4.4631919,4.4631919 0 0 0 -0.0215,0 c -8.87457,-0.32826 -17.72154,-2.10385 -26.01953,-5.31641 0.85497,-0.96676 1.71416,-1.96103 2.46094,-2.77734 a 4.4631919,4.4631919 0 0 0 0.0644,-0.0723 c 2.30588,-2.63331 4.46432,-5.30272 6.59765,-7.90625 a 4.4631919,4.4631919 0 0 0 -1.17773,-6.66796 c -6.42305,-3.80359 -12.3385,-8.05639 -16.08398,-13.62891 -5.1e-4,-7.5e-4 -0.001,-0.001 -0.002,-0.002 -2.54919,-3.82259 -3.91914,-8.55087 -3.89843,-13.16993 a 4.4631919,4.4631919 0 0 0 0,-0.0547 c -0.0543,-7.07943 1.90752,-14.20848 5.42968,-20.44727 a 4.4631919,4.4631919 0 0 0 0.002,-0.002 c 2.09425,-3.71615 4.57592,-7.18439 7.44726,-10.19531 11.0324,-10.66578 22.08111,-21.3302 33.0586,-32.08985 a 4.4631919,4.4631919 0 0 0 0.0566,-0.0566 c 11.466,-11.64467 20.63526,-25.447862 27.11523,-40.39453 l -0.5957,0.994141 c 0.97233,-1.227994 1.36606,-2.28588 1.22656,-4.011719 -0.0697,-0.86292 -0.37674,-1.991304 -1.25391,-2.986328 -0.87716,-0.995024 -2.27248,-1.590896 -3.37304,-1.689453 a 4.4631919,4.4631919 0 0 0 -1.56641,0.138671 c -2.19578,0.595773 -3.12737,1.418448 -3.17187,1.435547 a 4.4631919,4.4631919 0 0 0 -0.30274,0.128907 c -4.87395,2.297697 -10.0305,3.878996 -15.22266,4.298828 a 4.4631919,4.4631919 0 0 0 -0.0391,0.002 c -4.34097,0.388641 -9.0151,0.146877 -13.99609,0.21875 -15.68946,0.0118 -31.39542,-0.03438 -47.11719,0.03516 a 4.4631919,4.4631919 0 0 0 -0.10742,0.002 c -8.66822,0.247833 -17.31675,3.217655 -24.125,8.90625 -4.72321,3.868679 -8.32601,8.686095 -11.16797,13.869141 0.002,-14.174213 -0.005,-28.35054 0.01,-42.523438 0.0673,-3.66978 1.25187,-7.506044 3.25976,-9.435547 1.50027,-1.367222 3.95343,-2.356845 6.94727,-3.505859 6.57075,-2.373077 13.52138,-3.961254 20.66601,-5.548828 a 4.4631919,4.4631919 0 0 0 1.76758,-0.832031 c -0.8387,0.650892 -0.47199,0.395464 0.56445,-0.22461 0.51823,-0.310037 1.35239,-0.856311 2,-2.035156 0.64762,-1.178845 0.72685,-2.851723 0.41211,-3.941406 a 4.4631919,4.4631919 0 0 0 -1.62695,-2.345703 c -2.47662,-1.837929 -4.79052,-1.522818 -5.83008,-1.521485 z m 17.13477,80.175786 h 28.47851 c -11.49828,11.33739 -23.01354,22.66159 -34.48242,34.05273 a 4.4631919,4.4631919 0 0 0 -0.0566,0.0566 c -7.65436,7.88041 -14.75274,16.95651 -18.96289,27.75 -2.99114,7.67484 -4.0832,16.15825 -2.68359,24.4375 0.0157,0.0969 0.0482,0.18843 0.0644,0.28516 -3.04487,-3.58385 -5.92021,-7.30466 -8.45703,-11.25196 a 4.4631919,4.4631919 0 0 0 -0.0195,-0.0312 c -3.50061,-5.34787 -6.68332,-10.65459 -8.48828,-16.17578 -0.58131,-1.77719 -0.81609,-3.70811 -0.7168,-5.66797 a 4.4631919,4.4631919 0 0 0 0.006,-0.22656 c 0.002,-14.04244 0.0103,-28.08174 0.01,-42.12305 a 4.4631919,4.4631919 0 0 0 1.03321,-0.01 c 4.87703,-3.65844 9.26959,-7.28989 13.96679,-9.55274 2.24527,-0.93817 5.07477,-1.21305 8.47071,-1.44921 7.167,-0.19196 14.44806,-0.0457 21.83789,-0.0937 z" />
  </g>
</svg>
