<svg width="36" height="36" viewBox="0 0 36 36" fill="none" xmlns="http://www.w3.org/2000/svg">
<path d="M7.23775 18.0375L13.0503 23.85C13.3253 24.125 13.4628 24.475 13.4628 24.9C13.4628 25.325 13.3253 25.675 13.0503 25.95C12.7753 26.225 12.4253 26.3625 12.0003 26.3625C11.5753 26.3625 11.2253 26.225 10.9503 25.95L4.05025 19.05C3.90025 18.9 3.79375 18.7375 3.73075 18.5625C3.66775 18.3875 3.63725 18.2 3.63925 18C3.64125 17.8 3.67275 17.6125 3.73375 17.4375C3.79475 17.2625 3.90075 17.1 4.05175 16.95L10.9518 10.05C11.2518 9.75004 11.6083 9.60004 12.0213 9.60004C12.4343 9.60004 12.7903 9.75004 13.0893 10.05C13.3883 10.35 13.5383 10.7065 13.5393 11.1195C13.5403 11.5325 13.3903 11.8885 13.0893 12.1875L7.23775 18.0375ZM28.7628 17.9625L22.9503 12.15C22.6753 11.875 22.5378 11.525 22.5378 11.1C22.5378 10.675 22.6753 10.325 22.9503 10.05C23.2253 9.77504 23.5753 9.63754 24.0003 9.63754C24.4253 9.63754 24.7753 9.77504 25.0503 10.05L31.9503 16.95C32.1003 17.1 32.2068 17.2625 32.2698 17.4375C32.3328 17.6125 32.3638 17.8 32.3628 18C32.3618 18.2 32.3308 18.3875 32.2698 18.5625C32.2088 18.7375 32.1023 18.9 31.9503 19.05L25.0503 25.95C24.7503 26.25 24.4003 26.394 24.0003 26.382C23.6003 26.37 23.2503 26.2135 22.9503 25.9125C22.6503 25.6115 22.5003 25.2555 22.5003 24.8445C22.5003 24.4335 22.6503 24.077 22.9503 23.775L28.7628 17.9625Z" fill="black"/>
</svg>
