<svg width="48" height="48" viewBox="0 0 48 48" xmlns="http://www.w3.org/2000/svg" fill="currentColor"><path fill-rule="evenodd" clip-rule="evenodd" d="M40.5 24C40.5 28.3761 38.7616 32.5729 35.6673 35.6673C32.5729 38.7616 28.3761 40.5 24 40.5C19.6239 40.5 15.4271 38.7616 12.3327 35.6673C9.23839 32.5729 7.5 28.3761 7.5 24C7.5 19.6239 9.23839 15.4271 12.3327 12.3327C15.4271 9.23839 19.6239 7.5 24 7.5C28.3761 7.5 32.5729 9.23839 35.6673 12.3327C38.7616 15.4271 40.5 19.6239 40.5 24ZM45 24C45 29.5695 42.7875 34.911 38.8492 38.8492C34.911 42.7875 29.5695 45 24 45C18.4305 45 13.089 42.7875 9.15076 38.8492C5.21249 34.911 3 29.5695 3 24C3 18.4305 5.21249 13.089 9.15076 9.15076C13.089 5.21249 18.4305 3 24 3C29.5695 3 34.911 5.21249 38.8492 9.15076C42.7875 13.089 45 18.4305 45 24ZM16.974 29.37C16.6275 29.8425 16.479 30.4315 16.5601 31.0117C16.6411 31.592 16.9453 32.1177 17.4079 32.4772C17.8705 32.8367 18.4552 33.0016 19.0375 32.9367C19.6197 32.8719 20.1538 32.5825 20.526 32.13L24 27.669L27.474 32.136C27.8404 32.607 28.3789 32.9132 28.971 32.9872C29.5632 33.0612 30.1605 32.8969 30.6315 32.5305C31.1025 32.1641 31.4087 31.6256 31.4827 31.0335C31.5567 30.4413 31.3924 29.844 31.026 29.373L26.85 24L31.026 18.63C31.3725 18.1575 31.521 17.5685 31.4399 16.9883C31.3589 16.408 31.0547 15.8823 30.5921 15.5228C30.1295 15.1633 29.5448 14.9984 28.9626 15.0633C28.3803 15.1281 27.8462 15.4175 27.474 15.87L24 20.334L20.526 15.87C20.3482 15.6275 20.1235 15.4231 19.8653 15.2688C19.6071 15.1146 19.3206 15.0138 19.0227 14.9722C18.7249 14.9306 18.4217 14.9491 18.1311 15.0267C17.8406 15.1043 17.5685 15.2393 17.331 15.4238C17.0935 15.6084 16.8955 15.8386 16.7485 16.101C16.6015 16.3634 16.5087 16.6526 16.4754 16.9515C16.4421 17.2504 16.4691 17.553 16.5547 17.8413C16.6404 18.1295 16.7829 18.3977 16.974 18.63L21.15 24L16.974 29.37Z"/></svg>